<?xml version="1.0" encoding="utf-8"?>
<!-- Generator: Adobe Illustrator 19.0.0, SVG Export Plug-In . SVG Version: 6.00 Build 0)  -->
<svg version="1.1" id="Layer_1" xmlns="http://www.w3.org/2000/svg" xmlns:xlink="http://www.w3.org/1999/xlink" x="0px" y="0px"
	 width="1400px" height="980px" viewBox="0 0 1400 980" enable-background="new 0 0 1400 980" xml:space="preserve">
<g id="XMLID_580_">
	<g id="XMLID_545_">
		<g id="XMLID_531_">
			<g id="XMLID_543_">
				
					<rect id="XMLID_1130_" x="692" y="594.2" transform="matrix(-0.5904 -0.8071 0.8071 -0.5904 767.461 1617.5032)" fill="#F07078" width="204.3" height="39.7"/>
			</g>
			<g id="XMLID_542_">
				<path id="XMLID_1079_" d="M838.5,711.6c-1.1,0-2.1-0.5-2.8-1.4L715,545.4c-1.1-1.6-0.8-3.8,0.8-4.9l32-23.4
					c0.8-0.5,1.7-0.8,2.6-0.6c0.9,0.1,1.7,0.6,2.3,1.4l120.6,164.9c0.5,0.7,0.8,1.7,0.6,2.6c-0.1,0.9-0.6,1.7-1.4,2.3l-32,23.4
					C839.9,711.4,839.2,711.6,838.5,711.6z M722.8,544l116.5,159.2l26.4-19.3L749.1,524.8L722.8,544z"/>
			</g>
			<g id="XMLID_532_">
				<g id="XMLID_541_">
					
						<rect id="XMLID_1078_" x="847.3" y="662.1" transform="matrix(0.5904 0.8071 -0.8071 0.5904 887.8021 -413.0662)" width="7" height="12.1"/>
				</g>
				<g id="XMLID_540_">
					
						<rect id="XMLID_1077_" x="835.8" y="646.3" transform="matrix(0.5904 0.8071 -0.8071 0.5904 870.3373 -410.2138)" width="7" height="12.1"/>
				</g>
				<g id="XMLID_539_">
					
						<rect id="XMLID_1076_" x="820.9" y="628.8" transform="matrix(0.5904 0.8071 -0.8071 0.5904 853.479 -403.6463)" width="7" height="20.4"/>
				</g>
				<g id="XMLID_538_">
					
						<rect id="XMLID_1075_" x="812.7" y="614.7" transform="matrix(0.5904 0.8071 -0.8071 0.5904 835.4069 -404.5095)" width="7" height="12.1"/>
				</g>
				<g id="XMLID_537_">
					
						<rect id="XMLID_1074_" x="801.2" y="598.9" transform="matrix(0.5904 0.8071 -0.8071 0.5904 817.9418 -401.6578)" width="7" height="12.1"/>
				</g>
				<g id="XMLID_536_">
					
						<rect id="XMLID_1073_" x="786.3" y="581.5" transform="matrix(0.5904 0.8071 -0.8071 0.5904 801.0836 -395.0902)" width="7" height="20.4"/>
				</g>
				<g id="XMLID_535_">
					
						<rect id="XMLID_1072_" x="778.1" y="567.4" transform="matrix(0.5904 0.8071 -0.8071 0.5904 783.0037 -395.9533)" width="7" height="12.1"/>
				</g>
				<g id="XMLID_534_">
					
						<rect id="XMLID_1071_" x="766.5" y="551.6" transform="matrix(0.5904 0.8071 -0.8071 0.5904 765.5467 -393.1011)" width="7" height="12.1"/>
				</g>
				<g id="XMLID_533_">
					
						<rect id="XMLID_1070_" x="751.6" y="534.1" transform="matrix(0.5904 0.8071 -0.8071 0.5904 748.6776 -386.5335)" width="7" height="20.4"/>
				</g>
			</g>
		</g>
		<g id="XMLID_500_">
			<g id="XMLID_529_">
				<path id="XMLID_1129_" fill="#FBB830" d="M890.7,555.9l-4.6-36.3L860,545.2C857.4,552.6,888.1,563.2,890.7,555.9z"/>
			</g>
			<g id="XMLID_528_">
				<path id="XMLID_1128_" fill="#80C342" d="M860,545.2c7.6,11.1,17.9,14.7,30.7,10.6l-55,158.7c-0.7,2.1-2.4,3.9-4.5,4.7
					c-11,4.2-19.5,1.2-25.6-8.9c-1.2-1.9-1.4-4.3-0.6-6.5L860,545.2z"/>
			</g>
			<g id="XMLID_519_">
				<path id="XMLID_1127_" fill="#D6393C" d="M805.6,710.4c6,10.1,14.6,13,25.6,8.9c2.1-0.8,3.8-2.5,4.5-4.7l4.2-12.1
					c-13.2,4.9-23.4,1.4-30.7-10.6l-4.2,12.1C804.2,706.1,804.4,708.4,805.6,710.4z"/>
			</g>
			<g id="XMLID_518_">
				<path id="XMLID_1067_" d="M822.1,724.6c-8,0-14.6-4.2-19.5-12.4c-1.7-2.8-2-6.3-1-9.4l55-158.7c0.4-1.2,1.5-2.1,2.8-2.3
					c1.3-0.2,2.6,0.4,3.4,1.5c6.7,9.8,15.5,12.8,26.8,9.3c1.3-0.4,2.6,0,3.6,0.9c0.9,0.9,1.2,2.3,0.8,3.6l-55,158.7
					c-1.1,3.2-3.5,5.6-6.6,6.8C828.8,723.9,825.4,724.6,822.1,724.6z M861.2,552.3l-52.9,152.8c-0.4,1.2-0.3,2.5,0.3,3.5
					c5.2,8.6,11.9,10.9,21.3,7.4c1.1-0.4,2-1.4,2.5-2.6l52.9-152.8C876,561.9,867.8,559.1,861.2,552.3z"/>
			</g>
			<g id="XMLID_517_">
				<path id="XMLID_1066_" d="M887.2,556.3l-3.7-29.3l-21.1,20.7l-4.9-5l26.1-25.6c0.9-0.9,2.3-1.2,3.6-0.8c1.3,0.4,2.2,1.5,2.3,2.9
					l4.6,36.3L887.2,556.3z"/>
			</g>
			<g id="XMLID_501_">
				<path id="XMLID_1065_" d="M829.2,708.1c-9.4,0-17.2-4.9-23-14.5l6-3.6c6.4,10.6,14.9,13.5,26.5,9.2l2.5,6.6
					C836.9,707.3,832.9,708.1,829.2,708.1z"/>
			</g>
		</g>
		<g id="XMLID_530_">
			<path id="XMLID_1126_" fill="#7A8DAB" d="M871.8,761.6H763.7c-8.9,0-16.1-7.2-16.1-16.1V603.1h140.3v142.4
				C887.9,754.4,880.7,761.6,871.8,761.6z"/>
		</g>
		<g id="XMLID_499_">
			<path id="XMLID_1062_" d="M871.8,765.1H763.7c-10.8,0-19.6-8.8-19.6-19.6V603.1c0-1.9,1.6-3.5,3.5-3.5h140.3
				c1.9,0,3.5,1.6,3.5,3.5v142.4C891.4,756.3,882.6,765.1,871.8,765.1z M751.1,606.6v138.9c0,6.9,5.6,12.6,12.6,12.6h108.2
				c6.9,0,12.6-5.6,12.6-12.6V606.6H751.1z"/>
		</g>
	</g>
	<g id="XMLID_561_">
		<path id="XMLID_1061_" fill="#FFFFFF" d="M763.4,691c-1.9,0-3.5-1.6-3.5-3.5v-63.2c0-1.9,1.6-3.5,3.5-3.5c1.9,0,3.5,1.6,3.5,3.5
			v63.2C766.9,689.4,765.3,691,763.4,691z"/>
	</g>
	<g id="XMLID_567_">
		<path id="XMLID_1060_" fill="#FFFFFF" d="M763.4,713.6c-1.9,0-3.5-1.6-3.5-3.5v-9.7c0-1.9,1.6-3.5,3.5-3.5c1.9,0,3.5,1.6,3.5,3.5
			v9.7C766.9,712,765.3,713.6,763.4,713.6z"/>
	</g>
</g>
<g id="XMLID_581_">
	<g id="XMLID_920_">
		<g id="XMLID_859_">
			<path id="XMLID_1125_" fill="#F07078" d="M1228.6,435.7h-209.3c-10.3,0-18.6-8.3-18.6-18.6V248.4h246.6v168.7
				C1247.2,427.4,1238.9,435.7,1228.6,435.7z"/>
		</g>
		<g id="XMLID_830_">
			<path id="XMLID_1057_" d="M1228.6,439.2h-209.3c-12.2,0-22.1-9.9-22.1-22.1V248.4c0-1.9,1.6-3.5,3.5-3.5h246.6
				c1.9,0,3.5,1.6,3.5,3.5v168.7C1250.7,429.3,1240.8,439.2,1228.6,439.2z M1004.1,251.9v165.2c0,8.3,6.8,15.1,15.1,15.1h209.3
				c8.3,0,15.1-6.8,15.1-15.1V251.9H1004.1z"/>
		</g>
		<g id="XMLID_832_">
			<path id="XMLID_1124_" fill="#F07078" d="M1207.4,319.1h-167.1c-26.3,0-47.6-21.3-47.6-47.6v-23.1H1255v23.1
				C1255,297.8,1233.7,319.1,1207.4,319.1z"/>
		</g>
		<g id="XMLID_831_">
			<path id="XMLID_1054_" d="M1207.4,322.6h-167.1c-28.2,0-51.1-22.9-51.1-51.1v-23.1c0-1.9,1.6-3.5,3.5-3.5H1255
				c1.9,0,3.5,1.6,3.5,3.5v23.1C1258.5,299.7,1235.6,322.6,1207.4,322.6z M996.3,251.9v19.6c0,24.3,19.8,44.1,44.1,44.1h167.1
				c24.3,0,44.1-19.8,44.1-44.1v-19.6H996.3z"/>
		</g>
		<g id="XMLID_915_">
			<g id="XMLID_914_">
				<g id="XMLID_912_">
					<path id="XMLID_1123_" fill="#7A8DAB" d="M1072.5,342.6L1072.5,342.6c-5.3,0-9.7-4.3-9.7-9.7v-19.3c0-5.3,4.3-9.7,9.7-9.7l0,0
						c5.3,0,9.7,4.3,9.7,9.7v19.3C1082.2,338.2,1077.9,342.6,1072.5,342.6z"/>
				</g>
				<g id="XMLID_913_">
					<path id="XMLID_1051_" d="M1072.5,346.1c-7.3,0-13.2-5.9-13.2-13.2v-19.3c0-7.3,5.9-13.2,13.2-13.2s13.2,5.9,13.2,13.2v19.3
						C1085.7,340.2,1079.8,346.1,1072.5,346.1z M1072.5,307.4c-3.4,0-6.2,2.8-6.2,6.2v19.3c0,3.4,2.8,6.2,6.2,6.2s6.2-2.8,6.2-6.2
						v-19.3C1078.7,310.2,1075.9,307.4,1072.5,307.4z"/>
				</g>
			</g>
			<g id="XMLID_916_">
				<g id="XMLID_918_">
					<path id="XMLID_1122_" fill="#7A8DAB" d="M1175.3,342.6L1175.3,342.6c-5.3,0-9.7-4.3-9.7-9.7v-19.3c0-5.3,4.3-9.7,9.7-9.7h0
						c5.3,0,9.7,4.3,9.7,9.7v19.3C1184.9,338.2,1180.6,342.6,1175.3,342.6z"/>
				</g>
				<g id="XMLID_917_">
					<path id="XMLID_1048_" d="M1175.3,346.1c-7.3,0-13.2-5.9-13.2-13.2v-19.3c0-7.3,5.9-13.2,13.2-13.2s13.2,5.9,13.2,13.2v19.3
						C1188.4,340.2,1182.5,346.1,1175.3,346.1z M1175.3,307.4c-3.4,0-6.2,2.8-6.2,6.2v19.3c0,3.4,2.8,6.2,6.2,6.2s6.2-2.8,6.2-6.2
						v-19.3C1181.4,310.2,1178.7,307.4,1175.3,307.4z"/>
				</g>
			</g>
		</g>
		<g id="XMLID_919_">
			<path id="XMLID_1045_" d="M1160,251.9h-72.1c-1.9,0-3.5-1.6-3.5-3.5v-10.6c0-9.1,7.4-16.6,16.6-16.6h46c9.1,0,16.6,7.4,16.6,16.6
				v10.6C1163.5,250.3,1161.9,251.9,1160,251.9z M1091.3,244.9h65.1v-7.1c0-5.3-4.3-9.6-9.6-9.6h-46c-5.3,0-9.6,4.3-9.6,9.6V244.9z"
				/>
		</g>
	</g>
	<g id="XMLID_568_">
		<path id="XMLID_1044_" fill="#FFFFFF" d="M1069,268.6h-58c-1.9,0-3.5-1.6-3.5-3.5c0-1.9,1.6-3.5,3.5-3.5h58c1.9,0,3.5,1.6,3.5,3.5
			C1072.5,267,1070.9,268.6,1069,268.6z"/>
	</g>
	<g id="XMLID_569_">
		<path id="XMLID_1043_" fill="#FFFFFF" d="M1094.3,268.6h-12.1c-1.9,0-3.5-1.6-3.5-3.5c0-1.9,1.6-3.5,3.5-3.5h12.1
			c1.9,0,3.5,1.6,3.5,3.5C1097.8,267,1096.3,268.6,1094.3,268.6z"/>
	</g>
</g>
<g id="XMLID_582_">
	<g id="XMLID_553_">
		<g id="XMLID_828_">
			<polygon id="XMLID_1121_" fill="#7A8DAB" points="856.8,405.3 880.1,444.6 862.8,444.6 838.1,405.3 817.7,405.3 817.7,444.6 
				799.7,444.6 799.7,405.3 779.4,405.3 754.7,444.6 737.4,444.6 760.7,405.3 			"/>
		</g>
		<g id="XMLID_821_">
			<polygon id="XMLID_1120_" fill="#7A8DAB" points="933.7,231.9 933.7,218.4 683.7,218.4 683.7,231.9 692.7,231.9 692.7,391.8 
				683.7,391.8 683.7,405.3 933.7,405.3 933.7,391.8 924.7,391.8 924.7,231.9 			"/>
		</g>
		<g id="XMLID_823_">
			<rect id="XMLID_1119_" x="707.7" y="231.9" fill="#80C342" width="202" height="159.7"/>
		</g>
		<g id="XMLID_547_">
			<g id="XMLID_549_">
				<path id="XMLID_1118_" fill="#FFFFFF" d="M769.5,329c-6-2.8-12-5.6-17.9-8.4c4.9-2.4,9.3-5.9,12.1-10.7
					c3.7-6.3,4.4-14.6,0.2-20.8c-3.5-5.2-9.9-8.5-16.2-6.9c-6.3,1.6-11,7.9-10.1,14.4c0.4,3.3,5.6,3.3,5.2,0
					c-0.7-5.1,3.2-9.8,8.5-9.7c4.7,0.2,8.7,4.2,9.9,8.5c3,11.1-7.4,19.4-16.7,22.5c-1.9,0.6-2.8,3.7-0.6,4.7
					c7.7,3.6,15.4,7.2,23,10.8C769.9,334.9,772.6,330.4,769.5,329z"/>
			</g>
			<g id="XMLID_546_">
				<path id="XMLID_1117_" fill="#FFFFFF" d="M829.3,324c-6-2.8-12-5.6-17.9-8.4c4.9-2.4,9.3-5.9,12.1-10.7
					c3.7-6.3,4.4-14.6,0.2-20.8c-3.5-5.2-9.9-8.5-16.2-6.9c-6.3,1.6-11,7.9-10.1,14.4c0.4,3.3,5.6,3.3,5.2,0
					c-0.7-5.1,3.2-9.8,8.5-9.7c4.7,0.2,8.7,4.2,9.9,8.5c3,11.1-7.4,19.4-16.7,22.5c-1.9,0.6-2.8,3.7-0.6,4.7
					c7.7,3.6,15.4,7.2,23,10.8C829.7,329.9,832.4,325.4,829.3,324z"/>
			</g>
			<g id="XMLID_550_">
				<path id="XMLID_1116_" fill="#FFFFFF" d="M794,303.2c-6.7,1.1-13.3,2.1-20,3.2c-3.3,0.5-1.9,5.5,1.4,5c6.7-1.1,13.3-2.1,20-3.2
					C798.7,307.7,797.3,302.7,794,303.2z"/>
			</g>
			<g id="XMLID_551_">
				<path id="XMLID_1115_" fill="#FFFFFF" d="M789.1,316.6c-2-4.6-3-9.4-3.1-14.4c-0.1-3.3-5.3-3.3-5.2,0c0.1,6,1.4,11.6,3.8,17
					C786,322.2,790.5,319.6,789.1,316.6z"/>
			</g>
			<g id="XMLID_554_">
				<path id="XMLID_1114_" fill="#FFFFFF" d="M846.2,298.7h-10c-3.3,0-3.3,5.2,0,5.2h10C849.5,303.9,849.5,298.7,846.2,298.7z"/>
			</g>
			<g id="XMLID_555_">
				<path id="XMLID_1113_" fill="#FFFFFF" d="M847.9,311.5c-3.9,0.4-7.8,0.8-11.8,1.3c-3.3,0.4-3.3,5.5,0,5.2
					c3.9-0.4,7.8-0.8,11.8-1.3C851.2,316.3,851.2,311.1,847.9,311.5z"/>
			</g>
			<g id="XMLID_557_">
				<path id="XMLID_1112_" fill="#FFFFFF" d="M877.5,302.6c-3-0.2-6.1-0.5-9.1-1c-1.6-0.2-3.2-0.6-4.9-0.8c-0.5-0.1-1.1-0.2-1.6-0.3
					c-0.7,0.3-0.8,0-0.2-0.7c0-1.9,3.1-5.7,4-7.4c1.5-2.7,2.9-5.4,4.4-8.1c1.6-2.9-2.9-5.6-4.5-2.6c-2.2,4.2-4.5,8.4-6.7,12.6
					c-1.3,2.4-3.7,5.5-2.5,8.3c1.2,2.8,4.8,3.1,7.4,3.5c4.5,0.8,9.1,1.3,13.7,1.7C880.8,308,880.8,302.8,877.5,302.6z"/>
			</g>
			<g id="XMLID_558_">
				<path id="XMLID_1111_" fill="#FFFFFF" d="M878.5,293.9c0.1-3.3-5.1-3.3-5.2,0c-0.2,12.2,0.2,24.4,1.4,36.6
					c0.3,3.3,5.5,3.3,5.2,0C878.8,318.4,878.3,306.1,878.5,293.9z"/>
			</g>
		</g>
		<g id="XMLID_825_">
			<path id="XMLID_1040_" d="M909.7,395.1h-202c-1.9,0-3.5-1.6-3.5-3.5V231.9c0-1.9,1.6-3.5,3.5-3.5h202c1.9,0,3.5,1.6,3.5,3.5
				v159.7C913.2,393.6,911.7,395.1,909.7,395.1z M711.2,388.1h195V235.4h-195V388.1z"/>
		</g>
		<g id="XMLID_822_">
			<path id="XMLID_1037_" d="M933.7,408.8h-250c-1.9,0-3.5-1.6-3.5-3.5v-13.5c0-1.9,1.6-3.5,3.5-3.5c3,0,5.5-2.5,5.5-5.5V240.9
				c0-3-2.5-5.5-5.5-5.5c-1.9,0-3.5-1.6-3.5-3.5v-13.5c0-1.9,1.6-3.5,3.5-3.5h250c1.9,0,3.5,1.6,3.5,3.5v13.5c0,1.9-1.6,3.5-3.5,3.5
				c-3,0-5.5,2.5-5.5,5.5v141.9c0,3,2.5,5.5,5.5,5.5c1.9,0,3.5,1.6,3.5,3.5v13.5C937.2,407.3,935.7,408.8,933.7,408.8z M687.2,401.8
				h243v-7c-5.2-1.5-9-6.3-9-12V240.9c0-5.7,3.8-10.5,9-12v-7h-243v7c5.2,1.5,9,6.3,9,12v141.9c0,5.7-3.8,10.5-9,12V401.8z"/>
		</g>
		<g id="XMLID_824_">
			<g id="XMLID_826_">
				<path id="XMLID_1036_" d="M754.7,448.1h-17.3c-1.3,0-2.4-0.7-3-1.8c-0.6-1.1-0.6-2.4,0-3.5l23.3-39.2l6,3.6l-20.2,34h9.2
					l23.6-37.6l5.9,3.7l-24.7,39.2C757.1,447.5,755.9,448.1,754.7,448.1z"/>
			</g>
			<g id="XMLID_827_">
				<path id="XMLID_1035_" d="M880.1,448.1h-17.3c-1.2,0-2.3-0.6-3-1.6l-24.7-39.2l5.9-3.7l23.6,37.6h9.2l-20.2-34l6-3.6l23.3,39.2
					c0.6,1.1,0.7,2.4,0,3.5C882.5,447.4,881.4,448.1,880.1,448.1z"/>
			</g>
		</g>
		<g id="XMLID_829_">
			<path id="XMLID_1034_" d="M817.7,448.1h-18c-1.9,0-3.5-1.6-3.5-3.5v-39.2h7v35.7h11v-35.7h7v39.2
				C821.2,446.5,819.7,448.1,817.7,448.1z"/>
		</g>
	</g>
	<g id="XMLID_570_">
		<path id="XMLID_1033_" fill="#FFFFFF" d="M767.7,250.6h-44c-1.9,0-3.5-1.6-3.5-3.5s1.6-3.5,3.5-3.5h44c1.9,0,3.5,1.6,3.5,3.5
			S769.6,250.6,767.7,250.6z"/>
	</g>
	<g id="XMLID_571_">
		<path id="XMLID_1032_" fill="#FFFFFF" d="M789.4,250.6h-10c-1.9,0-3.5-1.6-3.5-3.5s1.6-3.5,3.5-3.5h10c1.9,0,3.5,1.6,3.5,3.5
			S791.3,250.6,789.4,250.6z"/>
	</g>
</g>
<g id="XMLID_583_">
	<g id="XMLID_819_">
		<g id="XMLID_675_">
			<g id="XMLID_694_">
				
					<rect id="XMLID_1110_" x="375.2" y="313.8" transform="matrix(-0.7071 -0.7071 0.7071 -0.7071 616.2283 931.757)" fill="#80C342" width="251.8" height="48.9"/>
			</g>
			<g id="XMLID_692_">
				<path id="XMLID_1029_" d="M572.8,448.1c-0.9,0-1.8-0.4-2.5-1L392.3,269c-1.4-1.4-1.4-3.6,0-4.9l34.6-34.6c1.3-1.3,3.6-1.3,5,0
					l178.1,178.1c1.4,1.4,1.4,3.6,0,4.9l-34.6,34.6C574.6,447.7,573.8,448.1,572.8,448.1z M399.7,266.5l173.1,173.1l29.6-29.6
					L429.3,236.9L399.7,266.5z"/>
			</g>
			<g id="XMLID_676_">
				<g id="XMLID_677_">
					
						<rect id="XMLID_1028_" x="576.9" y="386" transform="matrix(0.7072 0.707 -0.707 0.7072 448.1349 -295.1145)" width="7" height="14.9"/>
				</g>
				<g id="XMLID_678_">
					
						<rect id="XMLID_1027_" x="559.8" y="369" transform="matrix(0.7071 0.7071 -0.7071 0.7071 431.1591 -288.0674)" width="7" height="14.9"/>
				</g>
				<g id="XMLID_679_">
					
						<rect id="XMLID_1026_" x="539.1" y="350.4" transform="matrix(0.7071 0.7071 -0.7071 0.7071 415.6225 -277.3822)" width="7" height="25.2"/>
				</g>
				<g id="XMLID_680_">
					
						<rect id="XMLID_1025_" x="525.7" y="334.9" transform="matrix(0.7072 0.707 -0.707 0.7072 397.0065 -273.9333)" width="7" height="14.9"/>
				</g>
				<g id="XMLID_681_">
					
						<rect id="XMLID_1024_" x="508.7" y="317.8" transform="matrix(0.7072 0.707 -0.707 0.7072 379.97 -266.8744)" width="7" height="14.9"/>
				</g>
				<g id="XMLID_682_">
					
						<rect id="XMLID_1023_" x="488" y="299.3" transform="matrix(0.7072 0.707 -0.707 0.7072 364.4291 -256.1885)" width="7" height="25.2"/>
				</g>
				<g id="XMLID_683_">
					
						<rect id="XMLID_1022_" x="474.6" y="283.7" transform="matrix(0.7071 0.7071 -0.7071 0.7071 345.9335 -252.7658)" width="7" height="14.9"/>
				</g>
				<g id="XMLID_684_">
					
						<rect id="XMLID_1021_" x="457.5" y="266.7" transform="matrix(0.7071 0.7071 -0.7071 0.7071 328.8828 -245.7041)" width="7" height="14.9"/>
				</g>
				<g id="XMLID_685_">
					
						<rect id="XMLID_1020_" x="436.9" y="248.1" transform="matrix(0.7072 0.707 -0.707 0.7072 313.295 -235.0063)" width="7" height="25.2"/>
				</g>
			</g>
		</g>
		<g id="XMLID_818_">
			<g id="XMLID_687_">
				<path id="XMLID_1109_" fill="#FBB830" d="M410.4,394.1l-15.6,46.4l46.4-15.6C448.6,417.5,417.8,386.7,410.4,394.1z"/>
			</g>
			<g id="XMLID_686_">
				<path id="XMLID_1108_" fill="#7A8DAB" d="M441.2,424.9c-2.7-17.9-12.9-28.1-30.8-30.8L569.5,235c2.2-2.2,5.2-3.3,8.2-3
					c15.7,1.4,24.2,9.9,25.6,25.6c0.3,3-0.9,6-3,8.2L441.2,424.9z"/>
			</g>
			<g id="XMLID_690_">
				<path id="XMLID_1107_" fill="#D6393C" d="M603.3,257.6c-1.4-15.7-9.9-24.2-25.6-25.6c-3-0.3-6,0.9-8.2,3l-12.2,12.2
					c18.8,1.8,29,12,30.8,30.8l12.2-12.2C602.5,263.6,603.6,260.6,603.3,257.6z"/>
			</g>
			<g id="XMLID_413_">
				<path id="XMLID_1017_" d="M441.2,428.4c-0.4,0-0.7-0.1-1.1-0.2c-1.3-0.4-2.2-1.5-2.4-2.8c-2.4-16.3-11.6-25.4-27.9-27.9
					c-1.3-0.2-2.4-1.1-2.8-2.4c-0.4-1.3-0.1-2.6,0.8-3.6L567,232.5c2.9-2.9,6.9-4.4,11-4c17.3,1.5,27.3,11.5,28.8,28.8
					c0.4,4.1-1.1,8.1-4,11L443.7,427.4C443,428,442.1,428.4,441.2,428.4z M417.4,392c13.4,3.7,22.1,12.4,25.9,25.9l154.6-154.6
					c1.4-1.4,2.2-3.4,2-5.4c-1.2-14.1-8.4-21.2-22.4-22.4c-2-0.2-4,0.6-5.4,2L417.4,392z"/>
			</g>
			<g id="XMLID_646_">
				<path id="XMLID_1016_" d="M394.8,444c-0.9,0-1.8-0.4-2.5-1c-0.9-0.9-1.3-2.3-0.8-3.6l15.6-46.4l6.6,2.2L400.3,435l39.7-13.4
					l2.2,6.6l-46.4,15.6C395.5,444,395.1,444,394.8,444z"/>
			</g>
			<g id="XMLID_648_">
				<path id="XMLID_1015_" d="M584.7,278.2c-1.6-17-10.6-26-27.6-27.6l0.7-7c20.3,1.9,32,13.7,34,34L584.7,278.2z"/>
			</g>
		</g>
	</g>
	<g id="XMLID_572_">
		<path id="XMLID_1014_" fill="#FFFFFF" d="M512.9,316.5c-0.9,0-1.8-0.3-2.5-1c-1.4-1.4-1.4-3.6,0-4.9l36.2-36.2
			c1.4-1.4,3.6-1.4,4.9,0c1.4,1.4,1.4,3.6,0,4.9l-36.2,36.2C514.7,316.1,513.8,316.5,512.9,316.5z"/>
	</g>
	<g id="XMLID_573_">
		<path id="XMLID_1013_" fill="#FFFFFF" d="M497.3,331.8c-0.9,0-1.8-0.3-2.5-1c-1.4-1.4-1.4-3.6,0-4.9l7.6-7.6c1.4-1.4,3.6-1.4,5,0
			c1.4,1.4,1.4,3.6,0,4.9l-7.6,7.6C499.1,331.5,498.2,331.8,497.3,331.8z"/>
	</g>
</g>
<g id="XMLID_584_">
	<g id="XMLID_820_">
		<g id="XMLID_453_">
			<path id="XMLID_1106_" fill="#7A8DAB" d="M302.6,454.8H165.2c-10,0-18.2-8.1-18.2-18.2V239.9c0-10,8.1-18.2,18.2-18.2h137.4
				c10,0,18.2,8.1,18.2,18.2v196.7C320.7,446.6,312.6,454.8,302.6,454.8z"/>
		</g>
		<g id="XMLID_615_">
			<rect id="XMLID_1105_" x="166.9" y="306.8" fill="#FFFFFF" width="32.8" height="32.8"/>
		</g>
		<g id="XMLID_614_">
			<rect id="XMLID_1104_" x="217.5" y="306.8" fill="#FFFFFF" width="32.8" height="32.8"/>
		</g>
		<g id="XMLID_613_">
			<rect id="XMLID_1103_" x="268" y="306.8" fill="#FFFFFF" width="32.8" height="32.8"/>
		</g>
		<g id="XMLID_606_">
			<rect id="XMLID_1102_" x="166.9" y="353.7" fill="#FFFFFF" width="32.8" height="32.8"/>
		</g>
		<g id="XMLID_605_">
			<rect id="XMLID_1101_" x="217.5" y="353.7" fill="#FFFFFF" width="32.8" height="32.8"/>
		</g>
		<g id="XMLID_604_">
			<rect id="XMLID_1100_" x="268" y="353.7" fill="#80C342" width="32.8" height="79.7"/>
		</g>
		<g id="XMLID_603_">
			<rect id="XMLID_1099_" x="166.9" y="400.5" fill="#FFFFFF" width="32.8" height="32.8"/>
		</g>
		<g id="XMLID_602_">
			<rect id="XMLID_1098_" x="217.5" y="400.5" fill="#FFFFFF" width="32.8" height="32.8"/>
		</g>
		<g id="XMLID_402_">
			<path id="XMLID_1010_" d="M302.6,458.3H165.2c-11.9,0-21.7-9.7-21.7-21.7V239.9c0-11.9,9.7-21.7,21.7-21.7h137.4
				c11.9,0,21.7,9.7,21.7,21.7v196.7C324.2,448.5,314.5,458.3,302.6,458.3z M165.2,225.3c-8.1,0-14.7,6.6-14.7,14.7v196.7
				c0,8.1,6.6,14.7,14.7,14.7h137.4c8.1,0,14.7-6.6,14.7-14.7V239.9c0-8.1-6.6-14.7-14.7-14.7H165.2z"/>
		</g>
		<g id="XMLID_407_">
			<rect id="XMLID_1097_" x="166.9" y="243.2" fill="#FBB830" width="134" height="40.5"/>
		</g>
		<g id="XMLID_405_">
			<path id="XMLID_1007_" d="M300.9,287.2h-134c-1.9,0-3.5-1.6-3.5-3.5v-40.5c0-1.9,1.6-3.5,3.5-3.5h134c1.9,0,3.5,1.6,3.5,3.5v40.5
				C304.4,285.6,302.8,287.2,300.9,287.2z M170.4,280.2h127v-33.5h-127V280.2z"/>
		</g>
		<g id="XMLID_406_">
			<path id="XMLID_1004_" d="M199.7,343.2h-32.8c-1.9,0-3.5-1.6-3.5-3.5v-32.8c0-1.9,1.6-3.5,3.5-3.5h32.8c1.9,0,3.5,1.6,3.5,3.5
				v32.8C203.2,341.6,201.7,343.2,199.7,343.2z M170.4,336.2h25.8v-25.8h-25.8V336.2z"/>
		</g>
		<g id="XMLID_408_">
			<path id="XMLID_1001_" d="M250.3,343.2h-32.8c-1.9,0-3.5-1.6-3.5-3.5v-32.8c0-1.9,1.6-3.5,3.5-3.5h32.8c1.9,0,3.5,1.6,3.5,3.5
				v32.8C253.8,341.6,252.3,343.2,250.3,343.2z M221,336.2h25.8v-25.8H221V336.2z"/>
		</g>
		<g id="XMLID_409_">
			<path id="XMLID_998_" d="M300.9,343.2H268c-1.9,0-3.5-1.6-3.5-3.5v-32.8c0-1.9,1.6-3.5,3.5-3.5h32.8c1.9,0,3.5,1.6,3.5,3.5v32.8
				C304.4,341.6,302.8,343.2,300.9,343.2z M271.5,336.2h25.8v-25.8h-25.8V336.2z"/>
		</g>
		<g id="XMLID_412_">
			<path id="XMLID_995_" d="M199.7,390h-32.8c-1.9,0-3.5-1.6-3.5-3.5v-32.8c0-1.9,1.6-3.5,3.5-3.5h32.8c1.9,0,3.5,1.6,3.5,3.5v32.8
				C203.2,388.4,201.7,390,199.7,390z M170.4,383h25.8v-25.8h-25.8V383z"/>
		</g>
		<g id="XMLID_411_">
			<path id="XMLID_992_" d="M250.3,390h-32.8c-1.9,0-3.5-1.6-3.5-3.5v-32.8c0-1.9,1.6-3.5,3.5-3.5h32.8c1.9,0,3.5,1.6,3.5,3.5v32.8
				C253.8,388.4,252.3,390,250.3,390z M221,383h25.8v-25.8H221V383z"/>
		</g>
		<g id="XMLID_410_">
			<path id="XMLID_989_" d="M300.9,436.9H268c-1.9,0-3.5-1.6-3.5-3.5v-79.7c0-1.9,1.6-3.5,3.5-3.5h32.8c1.9,0,3.5,1.6,3.5,3.5v79.7
				C304.4,435.3,302.8,436.9,300.9,436.9z M271.5,429.9h25.8v-72.7h-25.8V429.9z"/>
		</g>
		<g id="XMLID_416_">
			<path id="XMLID_986_" d="M199.7,436.9h-32.8c-1.9,0-3.5-1.6-3.5-3.5v-32.8c0-1.9,1.6-3.5,3.5-3.5h32.8c1.9,0,3.5,1.6,3.5,3.5
				v32.8C203.2,435.3,201.7,436.9,199.7,436.9z M170.4,429.9h25.8V404h-25.8V429.9z"/>
		</g>
		<g id="XMLID_414_">
			<path id="XMLID_983_" d="M250.3,436.9h-32.8c-1.9,0-3.5-1.6-3.5-3.5v-32.8c0-1.9,1.6-3.5,3.5-3.5h32.8c1.9,0,3.5,1.6,3.5,3.5
				v32.8C253.8,435.3,252.3,436.9,250.3,436.9z M221,429.9h25.8V404H221V429.9z"/>
		</g>
	</g>
	<g id="XMLID_574_">
		<path id="XMLID_982_" fill="#FFFFFF" d="M230.9,260.8h-51.5c-1.9,0-3.5-1.6-3.5-3.5c0-1.9,1.6-3.5,3.5-3.5h51.5
			c1.9,0,3.5,1.6,3.5,3.5C234.4,259.2,232.8,260.8,230.9,260.8z"/>
	</g>
	<g id="XMLID_575_">
		<path id="XMLID_981_" fill="#FFFFFF" d="M251.7,260.8H243c-1.9,0-3.5-1.6-3.5-3.5c0-1.9,1.6-3.5,3.5-3.5h8.7
			c1.9,0,3.5,1.6,3.5,3.5C255.2,259.2,253.6,260.8,251.7,260.8z"/>
	</g>
</g>
<g id="XMLID_591_">
	<g id="XMLID_391_">
		<g id="XMLID_924_">
			<rect id="XMLID_1096_" x="145" y="544" fill="#F07078" width="177.9" height="217.5"/>
		</g>
		<g id="XMLID_925_">
			<polygon id="XMLID_1095_" fill="#FBB830" points="259.2,544 259.2,616.6 279.3,601.3 297.9,616.6 297.9,544 			"/>
		</g>
		<g id="XMLID_921_">
			<path id="XMLID_978_" d="M322.8,765.1H145c-1.9,0-3.5-1.6-3.5-3.5V544c0-1.9,1.6-3.5,3.5-3.5h177.9c1.9,0,3.5,1.6,3.5,3.5v217.5
				C326.3,763.5,324.8,765.1,322.8,765.1z M148.5,758.1h170.9V547.5H148.5V758.1z"/>
		</g>
		<g id="XMLID_922_">
			<path id="XMLID_977_" d="M297.9,620.1c-0.8,0-1.6-0.3-2.2-0.8l-16.5-13.5l-17.9,13.6c-1.1,0.8-2.5,0.9-3.7,0.4
				c-1.2-0.6-1.9-1.8-1.9-3.1V544h7v65.4l14.5-11c1.3-1,3.1-0.9,4.3,0.1l12.9,10.6V544h7v72.5c0,1.4-0.8,2.6-2,3.2
				C298.9,619.9,298.4,620.1,297.9,620.1z"/>
		</g>
		<g id="XMLID_389_">
			<g id="XMLID_926_">
				<rect id="XMLID_1094_" x="187.6" y="686" fill="#FFFFFF" width="106.3" height="51.7"/>
			</g>
			<g id="XMLID_923_">
				<path id="XMLID_974_" d="M293.9,741.3H187.6c-1.9,0-3.5-1.6-3.5-3.5V686c0-1.9,1.6-3.5,3.5-3.5h106.3c1.9,0,3.5,1.6,3.5,3.5
					v51.7C297.4,739.7,295.9,741.3,293.9,741.3z M191.1,734.3h99.3v-44.7h-99.3V734.3z"/>
			</g>
		</g>
		<g id="XMLID_390_">
			<rect id="XMLID_973_" x="157.3" y="544" width="7" height="217.5"/>
		</g>
	</g>
	<g id="XMLID_576_">
		<path id="XMLID_972_" fill="#FFFFFF" d="M176.7,613.5c-1.9,0-3.5-1.6-3.5-3.5v-51.3c0-1.9,1.6-3.5,3.5-3.5c1.9,0,3.5,1.6,3.5,3.5
			V610C180.2,612,178.6,613.5,176.7,613.5z"/>
	</g>
	<g id="XMLID_577_">
		<path id="XMLID_971_" fill="#FFFFFF" d="M176.7,639.5c-1.9,0-3.5-1.6-3.5-3.5v-10.8c0-1.9,1.6-3.5,3.5-3.5c1.9,0,3.5,1.6,3.5,3.5
			V636C180.2,638,178.6,639.5,176.7,639.5z"/>
	</g>
</g>
<g id="XMLID_559_">
	<g id="XMLID_480_">
		<g id="XMLID_479_">
			<g id="XMLID_419_">
				<path fill="#A7BAD6" d="M588.3,609.5c-19.1-7-33.5-6.6-44.6-5.4c-15.1,1.6-28.3-10.3-28.3-25.5c0-12.4-5.9-26.3-33.4-23.8
					c-48.2,4.3-91.1,55.1-75.8,121c15.3,65.9,94.4,109.7,163.7,71.7C639.2,709.5,633.5,626.1,588.3,609.5z M469.6,630.3
					c-7.8,12.7-22.4,17.9-32.7,11.7c-10.3-6.3-12.4-21.7-4.7-34.4c7.8-12.7,22.4-17.9,32.7-11.7
					C475.3,602.2,477.4,617.6,469.6,630.3z"/>
			</g>
			<g id="XMLID_393_">
				<path id="XMLID_968_" d="M515.8,765c-15.9,0-31.9-3.4-46.9-10.1c-33.4-15-58.1-44.3-66-78.4c-7.5-32.3-1.9-63.6,15.8-88.1
					c15.5-21.4,38.5-35,63.1-37.2c13.1-1.2,23,1.1,29.3,6.9c5.2,4.8,7.8,11.6,7.8,20.4c0,6.3,2.7,12.3,7.3,16.5
					c4.6,4.2,10.9,6.2,17.1,5.5l0,0c11.8-1.3,26.6-1.6,46.2,5.6c20.2,7.4,34,28,35.9,53.6c2.1,28.5-10.9,67.3-53.8,90.8
					C554.1,760.2,534.9,765,515.8,765z M488.2,558c-1.8,0-3.8,0.1-5.8,0.3c-22.6,2-43.7,14.6-58,34.3
					c-16.5,22.8-21.7,52.1-14.7,82.4c7.4,32,30.6,59.5,62.1,73.6c31.6,14.1,65.9,12.7,96.5-4.1c40-21.9,52.2-57.9,50.2-84.2
					c-1.7-22.8-13.7-41-31.3-47.5c-18.3-6.7-32-6.4-43.1-5.2l0,0c-8.2,0.9-16.4-1.8-22.5-7.3c-6.1-5.5-9.6-13.4-9.6-21.7
					c0-6.7-1.9-11.8-5.6-15.2C502.4,559.8,496.4,558,488.2,558z"/>
			</g>
			<g id="XMLID_421_">
				<circle id="XMLID_1093_" fill="#F07078" cx="496.5" cy="729.6" r="15.4"/>
			</g>
			<g id="XMLID_420_">
				<circle id="XMLID_1092_" fill="#80C342" cx="457.9" cy="706.1" r="15.4"/>
			</g>
			<g id="XMLID_401_">
				<circle id="XMLID_1091_" fill="#FBB830" cx="541.4" cy="720.8" r="15.4"/>
			</g>
			<g id="XMLID_400_">
				<circle id="XMLID_1090_" fill="#DC72AC" cx="581.2" cy="694.1" r="15.4"/>
			</g>
			<g id="XMLID_399_">
				<circle id="XMLID_1089_" fill="#5F95CE" cx="580.8" cy="643.5" r="15.4"/>
			</g>
			<g id="XMLID_392_">
				<path id="XMLID_965_" d="M496.5,748.6c-3.4,0-6.8-0.9-9.8-2.8c-4.3-2.6-7.4-6.8-8.6-11.7c-1.2-4.9-0.4-10,2.2-14.3
					c2.6-4.3,6.8-7.4,11.7-8.6c4.9-1.2,10-0.4,14.3,2.2c4.3,2.6,7.4,6.8,8.6,11.7c1.2,4.9,0.4,10-2.2,14.3
					c-2.6,4.3-6.8,7.4-11.7,8.6C499.5,748.4,498,748.6,496.5,748.6z M496.5,717.7c-0.9,0-1.9,0.1-2.8,0.3c-3.1,0.8-5.7,2.7-7.4,5.4
					c-1.7,2.7-2.2,5.9-1.4,9c0.8,3.1,2.7,5.7,5.4,7.4c2.7,1.7,5.9,2.2,9,1.4c3.1-0.8,5.7-2.7,7.4-5.4c1.7-2.7,2.2-5.9,1.4-9
					c-0.8-3.1-2.7-5.7-5.4-7.4h0C500.8,718.3,498.7,717.7,496.5,717.7z"/>
			</g>
			<g id="XMLID_398_">
				<path id="XMLID_962_" d="M457.8,725c-3.4,0-6.8-0.9-9.8-2.8c-8.9-5.4-11.8-17.1-6.3-26c2.6-4.3,6.8-7.4,11.7-8.6
					c4.9-1.2,10-0.4,14.3,2.2c4.3,2.6,7.4,6.8,8.6,11.7c1.2,4.9,0.4,10-2.2,14.3c-2.6,4.3-6.8,7.4-11.7,8.6
					C460.8,724.9,459.3,725,457.8,725z M457.9,694.1c-0.9,0-1.9,0.1-2.8,0.3c-3.1,0.8-5.7,2.7-7.4,5.4c-3.4,5.6-1.6,13,4,16.4
					c2.7,1.7,5.9,2.2,9,1.4c3.1-0.8,5.7-2.7,7.4-5.4c1.7-2.7,2.2-5.9,1.4-9c-0.8-3.1-2.7-5.7-5.4-7.4c0,0,0,0,0,0
					C462.2,694.7,460,694.1,457.9,694.1z"/>
			</g>
			<g id="XMLID_395_">
				<path id="XMLID_959_" d="M541.3,739.7c-3.4,0-6.8-0.9-9.8-2.8c-4.3-2.6-7.4-6.8-8.6-11.7c-1.2-4.9-0.4-10,2.2-14.3
					c5.4-8.9,17.1-11.8,26-6.3c4.3,2.6,7.4,6.8,8.6,11.7c1.2,4.9,0.4,10-2.2,14.3c-2.6,4.3-6.8,7.4-11.7,8.6
					C544.3,739.6,542.8,739.7,541.3,739.7z M541.4,708.8c-4,0-8,2-10.2,5.7c-1.7,2.7-2.2,5.9-1.4,9c0.8,3.1,2.7,5.7,5.4,7.4
					c2.7,1.7,5.9,2.2,9,1.4c3.1-0.8,5.7-2.7,7.4-5.4c1.7-2.7,2.2-5.9,1.4-9c-0.8-3.1-2.7-5.7-5.4-7.4c0,0,0,0,0,0
					C545.7,709.4,543.5,708.8,541.4,708.8z"/>
			</g>
			<g id="XMLID_396_">
				<path id="XMLID_956_" d="M581.2,713.1c-3.4,0-6.8-0.9-9.8-2.8c-4.3-2.6-7.4-6.8-8.6-11.7c-1.2-4.9-0.4-10,2.2-14.3
					c2.6-4.3,6.8-7.4,11.7-8.6c4.9-1.2,10-0.4,14.3,2.2c4.3,2.6,7.4,6.8,8.6,11.7c1.2,4.9,0.4,10-2.2,14.3
					C593.8,709.9,587.5,713.1,581.2,713.1z M581.2,682.2c-0.9,0-1.9,0.1-2.8,0.3c-3.1,0.8-5.7,2.7-7.4,5.4c-1.7,2.7-2.2,5.9-1.4,9
					c0.8,3.1,2.7,5.7,5.4,7.4c5.6,3.4,13,1.6,16.4-4c1.7-2.7,2.2-5.9,1.4-9c-0.8-3.1-2.7-5.7-5.4-7.4h0
					C585.5,682.8,583.4,682.2,581.2,682.2z"/>
			</g>
			<g id="XMLID_397_">
				<path id="XMLID_953_" d="M580.8,662.4c-3.4,0-6.8-0.9-9.8-2.8c-4.3-2.6-7.4-6.8-8.6-11.7c-1.2-4.9-0.4-10,2.2-14.3
					c2.6-4.3,6.8-7.4,11.7-8.6c4.9-1.2,10-0.4,14.3,2.2c0,0,0,0,0,0c8.9,5.4,11.8,17.1,6.3,26c-2.6,4.3-6.8,7.4-11.7,8.6
					C583.8,662.2,582.3,662.4,580.8,662.4z M580.8,631.5c-0.9,0-1.9,0.1-2.8,0.3c-3.1,0.8-5.7,2.7-7.4,5.4c-1.7,2.7-2.2,5.9-1.4,9
					c0.8,3.1,2.7,5.7,5.4,7.4c2.7,1.7,5.9,2.2,9,1.4c3.1-0.8,5.7-2.7,7.4-5.4c3.4-5.6,1.6-13-4-16.4
					C585.1,632.1,583,631.5,580.8,631.5z"/>
			</g>
			<g id="XMLID_394_">
				<path id="XMLID_950_" d="M446.6,648.1c-4.1,0-8-1.1-11.5-3.2c-5.9-3.6-9.7-9.8-10.8-17.3c-1-7.3,0.8-15.1,4.9-21.9
					c4.2-6.8,10.3-12,17.2-14.4c7.2-2.6,14.4-2,20.3,1.6c12,7.3,14.6,24.9,5.8,39.2c-4.2,6.8-10.3,12-17.2,14.4
					C452.5,647.6,449.5,648.1,446.6,648.1z M455.3,596.7c-2.1,0-4.3,0.4-6.4,1.2c-5.4,1.9-10.3,6-13.6,11.5
					c-3.3,5.5-4.7,11.6-4,17.3c0.7,5.4,3.4,9.8,7.5,12.3c4.1,2.5,9.2,2.8,14.3,1c5.4-1.9,10.3-6,13.6-11.5
					c6.7-11.1,5.2-24.3-3.5-29.6l0,0C460.8,597.4,458.1,596.7,455.3,596.7z"/>
			</g>
		</g>
	</g>
	<g id="XMLID_472_">
		<g id="XMLID_477_">
			<path id="XMLID_1088_" fill="#F07078" d="M470.7,646.2c0,0-7.7-8.6-20,0.8c-10.4,7.9-9.3,22.9-21.3,25.7c0,0,25.5,7.9,37.3,2
				c12.7-6.4,11.5-13.8,11.5-13.8L470.7,646.2z"/>
		</g>
		<g id="XMLID_475_">
			<g id="XMLID_476_">
				<path id="XMLID_1087_" fill="#7A8DAB" d="M478.1,660.9c-3-5.9-4.4-8.8-7.4-14.7c49.2-37.9,166.8-76.1,167-75.7
					C637.7,570.5,537.7,643.8,478.1,660.9z"/>
			</g>
		</g>
		<g id="XMLID_474_">
			<g id="XMLID_478_">
				<path id="XMLID_947_" d="M478.1,664.4c-1.3,0-2.5-0.7-3.1-1.9l-7.4-14.7c-0.8-1.5-0.3-3.3,1-4.4c25.8-19.9,70-39.6,102.5-52.6
					c18.8-7.5,35.4-13.5,46-17.2c19.8-6.9,20.5-6.8,21.4-6.6c1,0.2,1.9,0.9,2.4,1.8c0.8,1.5,0.3,3.4-1.1,4.4
					c-4.1,3-101.1,73.9-160.7,90.9C478.7,664.3,478.4,664.4,478.1,664.4z M475.1,647.2l4.8,9.4c42.7-13.2,105.2-53.9,136.4-75.4
					C580.5,593.9,510.8,620.9,475.1,647.2z"/>
			</g>
		</g>
		<g id="XMLID_473_">
			<path id="XMLID_946_" d="M454.5,680.4c-11.7,0-24.3-3.8-26.2-4.4c-1.5-0.5-2.5-1.9-2.5-3.5c0.1-1.6,1.2-2.9,2.7-3.3
				c4.8-1.2,6.9-4.9,9.8-10.9c2.3-4.8,5-10.2,10.2-14.2c11.8-8.9,21.3-4.1,24.7-0.3l-5.2,4.7c-0.6-0.6-6-5.9-15.3,1.2
				c-3.9,3-6,7.2-8.2,11.7c-1.7,3.4-3.4,7.1-6.2,10c8.6,1.8,20.4,3.3,26.6,0.1c9.9-5,9.6-10,9.6-10.3c0,0.1,0,0.1,0,0.1l6.9-1.1
				c0.2,1,1.2,10.2-13.4,17.5C464.4,679.7,459.5,680.4,454.5,680.4z"/>
		</g>
	</g>
	<g id="XMLID_578_">
		<path id="XMLID_945_" fill="#FFFFFF" d="M508.7,605.9c-0.8,0-1.6-0.3-2.3-0.9c-14-12.2-14.2-33.8-14.2-34.7c0-1.9,1.6-3.5,3.5-3.5
			c1.9,0,3.5,1.6,3.5,3.5l0,0c0,0.2,0.2,19.3,11.8,29.4c1.5,1.3,1.6,3.5,0.3,4.9C510.6,605.5,509.6,605.9,508.7,605.9z"/>
	</g>
	<g id="XMLID_579_">
		<path id="XMLID_944_" fill="#FFFFFF" d="M470.7,573.9c-1.5,0-3-1-3.4-2.6c-0.5-1.9,0.6-3.8,2.5-4.3c0.3-0.1,7.8-2.1,12.6-2.1
			c1.9,0,3.5,1.6,3.5,3.5s-1.6,3.5-3.5,3.5c-3.2,0-8.8,1.3-10.8,1.9C471.3,573.9,471,573.9,470.7,573.9z"/>
	</g>
</g>
<g id="XMLID_427_">
	<g id="XMLID_426_">
		<g id="XMLID_424_">
			<path id="XMLID_1086_" fill="#FBB830" d="M1085.5,539.9l-17.4-17.4c-4.6-4.6-12.1-4.6-16.7,0l-27.9,27.9
				c-4.6,4.6-4.6,12.1,0,16.7l13.3,13.3L1085.5,539.9z"/>
		</g>
		<g id="XMLID_422_">
			<path id="XMLID_1085_" fill="#FBB830" d="M1162.3,539.9l17.4-17.4c4.6-4.6,12.1-4.6,16.7,0l27.9,27.9c4.6,4.6,4.6,12.1,0,16.7
				l-13.3,13.3L1162.3,539.9z"/>
		</g>
		<g id="XMLID_595_">
			<path id="XMLID_943_" d="M1034.2,582.9l-13.3-13.3c-2.9-2.9-4.5-6.7-4.5-10.8c0-4.1,1.6-7.9,4.5-10.8l27.9-27.9
				c6-6,15.7-6,21.7,0l17.4,17.4l-4.9,4.9l-17.4-17.4c-3.3-3.3-8.5-3.3-11.8,0l-27.9,27.9c-1.6,1.6-2.4,3.7-2.4,5.9
				c0,2.2,0.9,4.3,2.4,5.9l13.3,13.3L1034.2,582.9z"/>
		</g>
		<g id="XMLID_598_">
			<path id="XMLID_942_" d="M1213.6,582.9l-4.9-4.9l13.3-13.3c3.3-3.3,3.3-8.5,0-11.8L1194,525c-3.3-3.2-8.5-3.3-11.8,0l-17.4,17.4
				l-4.9-4.9l17.4-17.4c6-6,15.7-6,21.7,0l27.9,27.9c6,6,6,15.7,0,21.7L1213.6,582.9z"/>
		</g>
		<g id="XMLID_596_">
			<circle id="XMLID_1084_" fill="#80C342" cx="1123.9" cy="636.3" r="103.7"/>
		</g>
		<g id="XMLID_592_">
			<path id="XMLID_939_" d="M1123.9,743.5c-59.1,0-107.2-48.1-107.2-107.2c0-59.1,48.1-107.2,107.2-107.2s107.2,48.1,107.2,107.2
				C1231.1,695.4,1183,743.5,1123.9,743.5z M1123.9,536.1c-55.3,0-100.2,45-100.2,100.2c0,55.3,45,100.2,100.2,100.2
				s100.2-45,100.2-100.2C1224.1,581,1179.2,536.1,1123.9,536.1z"/>
		</g>
		<g id="XMLID_597_">
			<circle id="XMLID_1083_" fill="#FFFFFF" cx="1123.9" cy="636.3" r="81.3"/>
		</g>
		<g id="XMLID_593_">
			<path id="XMLID_936_" d="M1123.9,721.1c-46.8,0-84.8-38.1-84.8-84.8c0-46.8,38.1-84.8,84.8-84.8s84.8,38.1,84.8,84.8
				C1208.7,683.1,1170.7,721.1,1123.9,721.1z M1123.9,558.5c-42.9,0-77.8,34.9-77.8,77.8c0,42.9,34.9,77.8,77.8,77.8
				c42.9,0,77.8-34.9,77.8-77.8C1201.7,593.4,1166.8,558.5,1123.9,558.5z"/>
		</g>
		<g id="XMLID_599_">
			<path id="XMLID_935_" d="M1123.9,639.8h-32.8c-1.9,0-3.5-1.6-3.5-3.5c0-1.9,1.6-3.5,3.5-3.5h29.3v-49.6c0-1.9,1.6-3.5,3.5-3.5
				s3.5,1.6,3.5,3.5v53.1C1127.4,638.2,1125.8,639.8,1123.9,639.8z"/>
		</g>
		<g id="XMLID_425_">
			<path id="XMLID_1082_" fill="#7A8DAB" d="M1211.3,761.6h-174.7v0c0-15.3,12.4-27.8,27.8-27.8h119.2
				C1198.8,733.8,1211.3,746.2,1211.3,761.6L1211.3,761.6z"/>
		</g>
		<g id="XMLID_423_">
			<path id="XMLID_932_" d="M1211.3,765.1h-174.7c-1.9,0-3.5-1.6-3.5-3.5c0-17.2,14-31.3,31.3-31.3h119.2c17.2,0,31.3,14,31.3,31.3
				C1214.8,763.5,1213.2,765.1,1211.3,765.1z M1040.3,758.1h167.2c-1.7-11.7-11.8-20.8-24-20.8h-119.2
				C1052.1,737.3,1042,746.4,1040.3,758.1z"/>
		</g>
	</g>
	<g id="XMLID_428_">
		<path id="XMLID_931_" fill="#FFFFFF" d="M1098.4,750.1h-31.8c-1.9,0-3.5-1.6-3.5-3.5c0-1.9,1.6-3.5,3.5-3.5h31.8
			c1.9,0,3.5,1.6,3.5,3.5C1101.9,748.6,1100.3,750.1,1098.4,750.1z"/>
	</g>
	<g id="XMLID_429_">
		<path id="XMLID_930_" fill="#FFFFFF" d="M1118.4,750.1h-8c-1.9,0-3.5-1.6-3.5-3.5c0-1.9,1.6-3.5,3.5-3.5h8c1.9,0,3.5,1.6,3.5,3.5
			C1121.9,748.6,1120.3,750.1,1118.4,750.1z"/>
	</g>
</g>
</svg>
